<svg xmlns="http://www.w3.org/2000/svg" version="1" viewBox="0 0 700 700"><path d="M449 5.3c.5 2.1 1.3 5.1 1.9 6.5 1 2.5 5.8 21.3 6.7 25.7.4 2.4 1.2 7.9 2.2 16 .8 7.3.8 29.3-.1 35.5-2.3 15.7-7.3 29.6-15.5 43.6-9.6 16.4-30.2 34-54.7 46.7-7.3 3.8-28.9 12.7-30.8 12.7-.7 0-3 .9-5.1 1.8l-4 1.8 9.5.1c38.5.5 68.3 8.4 92.3 24.5 7.8 5.3 22 19.5 27.3 27.4 16 23.7 23.7 54.1 24.3 95.9l.1 6 3.3-10c7.8-23.4 17.3-42.2 28.9-57 5.2-6.7 15.3-17.1 19.6-20.3 2-1.5 3.8-3 4.1-3.3.3-.4 3.2-2.3 6.4-4.4 11.9-7.6 26.7-13.1 41.6-15.5 13.8-2.3 35.7-1.9 49.5.9 2.8.6 6.2 1.3 7.8 1.5 1.5.3 3.7.7 5 1.1 7.7 2 10 2.7 17.6 5 4.6 1.4 8.6 2.4 8.8 2.1.2-.2-1.3-1.4-3.4-2.7-9.6-5.9-29.6-24.2-40.3-36.8-13.1-15.5-23.8-36.2-26.9-52.1-.6-3-1.4-6.6-1.7-8-1.1-5.2-.5-24.9 1-33.5 3.3-18.6 13-42.6 24.1-59.3 1.9-3 3.5-5.6 3.5-5.8 0-.3 2.5-3.9 5.6-8.1 6.4-8.6 7.4-9-11.7 3.8-21 14.1-43.2 23.9-60.4 26.6-1.6.3-5 .8-7.3 1.3-6.7 1.2-28.8.4-36.8-1.3-27.6-6.1-52.3-22-75.5-48.8-5.2-6-14-17.4-16.6-21.5-.9-1.5-1-1.2-.3 1.9z"/><path d="M414.2 254.1c-2.5.8-51.4 49.1-204.2 201.9C99.5 566.5 8.4 658.2 7.6 659.9c-1.8 3.4-2 7.8-.6 11.6.5 1.4 5.5 7.1 11.1 12.5 10.7 10.6 13.3 11.9 20.5 10.6 3-.6 30.4-27.6 205-202.2 121.6-121.6 202.1-202.8 202.9-204.7 1.7-4.1 1.3-8.9-1.1-12.4-2.2-3.5-16.1-17.4-19.4-19.6-3.3-2.1-7.7-2.7-11.8-1.6z"/></svg>