<svg xmlns="http://www.w3.org/2000/svg" width="100" height="100">
    <path fill="#002EA2" d="M1.428,93.717 L58.364,36.782 C58.7428352,36.4030882 59.256692,36.1902114 59.7925,36.1902114 C60.328308,36.1902114 60.8421648,36.4030882 61.221,36.782 L63.363,38.925 C63.7419118,39.3038352 63.9547886,39.817692 63.9547886,40.3535 C63.9547886,40.889308 63.7419118,41.4031648 63.363,41.782 L6.428,98.717 C6.04916479,99.0959118 5.53530803,99.3087886 4.9995,99.3087886 C4.46369197,99.3087886 3.94983521,99.0959118 3.571,98.717 L1.428,96.574 C1.04908823,96.1951648 0.836211381,95.681308 0.836211381,95.1455 C0.836211381,94.609692 1.04908823,94.0958352 1.428,93.717 Z"/>
    <path fill="#002EA2" d="M66.597,33.177 C62.919,29.498 57.307,27.754 49.76,27.943 C57.023,25.736 61.822,22.343 64.156,17.762 C66.49,13.182 66.415,7.305 63.931,0.132 C68.111,6.332 72.821,9.847 78.061,10.677 C83.301,11.507 88.868,9.619 94.761,5.014 C90.187,11.11 88.3,16.676 89.097,21.712 C89.895,26.749 93.41,31.459 99.643,35.844 C99.3038095,35.7230535 98.9634603,35.6053814 98.622,35.491 C92.011,33.302 86.474,33.345 82.012,35.618 C77.322,38.008 73.928,42.807 71.832,50.014 C72.021,42.468 70.276,36.855 66.597,33.177 Z"/>
</svg>
